<?xml version="1.0" encoding="utf-8"?>
<!-- Generator: Adobe Illustrator 25.2.1, SVG Export Plug-In . SVG Version: 6.00 Build 0)  -->
<svg version="1.1" id="Layer_1" xmlns="http://www.w3.org/2000/svg" xmlns:xlink="http://www.w3.org/1999/xlink" x="0px" y="0px"
	 viewBox="0 0 1000 1000" style="enable-background:new 0 0 1000 1000;" xml:space="preserve">
<style type="text/css">
	.st0{fill:#B36E03;}
	.st1{fill:#FF9E05;}
	.st2{fill:#E5B455;}
	.st3{fill:#D66F5B;}
	.st4{fill:#4B5A6A;}
	.st5{fill:#E4E4E4;}
	.st6{fill:#AE7B45;}
	.st7{fill:#8E663A;}
</style>
<g>
	<g>
		<g>
			<path class="st0" d="M294.54,400.82c-11.34-14.58-21.05-32.39-22.68-53.45L245.95,159.5h-87.46l-25.91,187.87
				c-1.62,19.43-11.34,37.25-24.29,53.45c-3.24,3.24-6.48,8.1-9.72,11.34c-6.48,9.72-9.72,22.67-9.72,35.63v361.17
				c0,21.06,17.82,42.11,38.87,45.35c48.59,4.86,98.8,4.86,147.38,0c22.67-3.24,38.87-22.68,38.87-45.35V447.79
				c0-12.96-3.24-24.29-9.72-35.63C301.02,407.3,297.78,404.06,294.54,400.82z"/>
			<path class="st1" d="M284.82,412.16c-16.2-19.43-27.53-40.49-29.15-61.55L242.71,250.2h-79.36l-12.96,100.41
				c-3.24,21.06-12.96,42.11-29.15,61.55c-3.24,3.24-4.86,6.48-8.1,9.72c-4.86,8.1-8.1,16.19-8.1,25.91v370.89
				c0,12.96,194.35,12.96,195.97,0V447.79c0-9.72-3.24-19.43-8.1-25.91C289.68,418.64,288.06,415.4,284.82,412.16z"/>
			<rect x="163.35" y="106.05" class="st2" width="77.74" height="6.48"/>
			<polygon class="st3" points="144.64,259.92 143.08,271.25 261.36,271.25 259.8,259.92 			"/>
			<polygon class="st4" points="153.58,195.13 144.64,259.92 259.8,259.92 250.87,195.13 			"/>
			<polygon class="st3" points="154.92,185.42 153.58,195.13 250.87,195.13 249.52,185.42 			"/>
			<path class="st5" d="M238.77,85h-36.44h-36.44c-8.1,0-12.96,6.48-12.96,12.96c0,4.86,3.24,9.72,8.1,11.34
				c-1.62,6.48-2.54,50.21-2.54,50.21h43.84h43.62c0,0-0.7-43.73-2.32-50.21c4.86-1.62,8.1-6.48,8.1-11.34
				C251.72,91.48,246.87,85,238.77,85z"/>
		</g>
		<g>
			<path class="st0" d="M592.64,400.82c-11.34-14.58-21.05-32.39-22.67-53.45L544.05,159.5h-87.46l-25.91,187.87
				c-1.62,19.43-11.34,37.25-24.29,53.45c-3.24,3.24-6.48,8.1-9.72,11.34c-6.48,9.72-9.72,22.67-9.72,35.63v361.17
				c0,21.06,17.82,42.11,38.87,45.35c48.59,4.86,98.8,4.86,147.38,0c22.67-3.24,38.87-22.68,38.87-45.35V447.79
				c0-12.96-3.24-24.29-9.72-35.63C599.12,407.3,595.88,404.06,592.64,400.82z"/>
			<path class="st1" d="M582.92,412.16c-16.2-19.43-27.53-40.49-29.15-61.55L540.81,250.2h-79.36l-12.96,100.41
				c-3.24,21.06-12.96,42.11-29.15,61.55c-3.24,3.24-4.86,6.48-8.1,9.72c-4.86,8.1-8.1,16.19-8.1,25.91v370.89
				c0,12.96,194.35,12.96,195.97,0V447.79c0-9.72-3.24-19.43-8.1-25.91C587.78,418.64,586.16,415.4,582.92,412.16z"/>
			<rect x="461.45" y="106.05" class="st2" width="77.74" height="6.48"/>
			<polygon class="st3" points="442.74,259.92 441.18,271.25 559.46,271.25 557.9,259.92 			"/>
			<polygon class="st4" points="451.68,195.13 442.74,259.92 557.9,259.92 548.96,195.13 			"/>
			<polygon class="st3" points="453.02,185.42 451.68,195.13 548.96,195.13 547.62,185.42 			"/>
			<path class="st5" d="M536.87,85h-36.44h-36.44c-8.1,0-12.96,6.48-12.96,12.96c0,4.86,3.24,9.72,8.1,11.34
				c-1.62,6.48-2.54,50.21-2.54,50.21h43.84h43.62c0,0-0.7-43.73-2.32-50.21c4.86-1.62,8.1-6.48,8.1-11.34
				C549.82,91.48,544.97,85,536.87,85z"/>
		</g>
		<g>
			<path class="st0" d="M890.74,400.82c-11.34-14.58-21.06-32.39-22.68-53.45L842.15,159.5h-87.46l-25.91,187.87
				c-1.62,19.43-11.34,37.25-24.29,53.45c-3.24,3.24-6.48,8.1-9.72,11.34c-6.48,9.72-9.72,22.67-9.72,35.63v361.17
				c0,21.06,17.82,42.11,38.87,45.35c48.59,4.86,98.8,4.86,147.38,0c22.67-3.24,38.87-22.68,38.87-45.35V447.79
				c0-12.96-3.24-24.29-9.72-35.63C897.21,407.3,893.98,404.06,890.74,400.82z"/>
			<path class="st1" d="M881.02,412.16c-16.2-19.43-27.53-40.49-29.15-61.55L838.91,250.2h-79.36l-12.96,100.41
				c-3.24,21.06-12.96,42.11-29.15,61.55c-3.24,3.24-4.86,6.48-8.1,9.72c-4.86,8.1-8.1,16.19-8.1,25.91v370.89
				c0,12.96,194.35,12.96,195.97,0V447.79c0-9.72-3.24-19.43-8.1-25.91C885.88,418.64,884.26,415.4,881.02,412.16z"/>
			<rect x="759.55" y="106.05" class="st2" width="77.74" height="6.48"/>
			<polygon class="st3" points="740.84,259.92 739.28,271.25 857.56,271.25 856,259.92 			"/>
			<polygon class="st4" points="749.78,195.13 740.84,259.92 856,259.92 847.06,195.13 			"/>
			<polygon class="st3" points="751.12,185.42 749.78,195.13 847.06,195.13 845.72,185.42 			"/>
			<path class="st5" d="M834.97,85h-36.44h-36.44c-8.1,0-12.96,6.48-12.96,12.96c0,4.86,3.24,9.72,8.1,11.34
				c-1.62,6.48-2.54,50.21-2.54,50.21h43.84h43.62c0,0-0.7-43.73-2.32-50.21c4.86-1.62,8.1-6.48,8.1-11.34
				C847.92,91.48,843.07,85,834.97,85z"/>
		</g>
	</g>
	<path class="st6" d="M928.37,361.15l-861.65,0.03c-16.93,0-30.71,13.79-30.71,30.72l0.02,417.98
		c0,57.27,46.58,103.88,103.86,103.88h66.39c0.03,0.17-0.07,0.3-0.02,0.46c0.46,1.21,1.82,1.8,3.01,1.34c1.37-0.53,2.66-1.22,4-1.8
		h168.83c0.03,0.15,0.03,0.3,0.07,0.46c0.33-0.17,0.69-0.3,1.03-0.46h475.95c57.27,0,103.86-46.6,103.86-103.88V395.84
		C963.03,376.69,947.47,361.15,928.37,361.15z M656.74,513.19c0,18.97-15.38,34.35-34.35,34.35H376.63
		c-18.97,0-34.35-15.38-34.35-34.35V502.2c0-18.97,15.38-34.35,34.35-34.35h245.75c18.97,0,34.35,15.38,34.35,34.35V513.19z"/>
	<g>
		<path class="st7" d="M66.73,361.18c-16.93,0-30.71,13.79-30.71,30.72l0.02,417.98c0,57.27,46.58,103.88,103.86,103.88h66.39
			c0.03,0.17-0.07,0.3-0.02,0.46c0.46,1.21,1.82,1.8,3.01,1.34c1.37-0.53,2.66-1.22,4-1.8h26.21c-57.27,0-103.86-46.6-103.86-103.88
			l-0.02-417.98c0-16.93,13.78-30.72,30.71-30.72l762.12-0.03c-0.02,0-0.05,0-0.07,0L66.73,361.18z"/>
		<path class="st7" d="M382.17,914.22c0.33-0.17,0.69-0.3,1.03-0.46h-1.09C382.14,913.91,382.14,914.05,382.17,914.22z"/>
		<path class="st7" d="M721.99,467.85h-99.6c18.97,0,34.35,15.38,34.35,34.35v10.98c0,18.97-15.38,34.35-34.35,34.35h99.6
			c18.97,0,34.35-15.38,34.35-34.35V502.2C756.34,483.23,740.96,467.85,721.99,467.85z"/>
	</g>
</g>
</svg>
